<svg width="173" height="58" viewBox="0 0 173 58" fill="none" xmlns="http://www.w3.org/2000/svg">
<path d="M162.177 13.3944C157.026 12.3362 152.199 11.2461 147.662 9.29151C146.031 8.59576 144.458 7.69499 142.91 6.7981C142.174 6.36851 141.468 5.73003 141.824 4.76872C142.101 3.98246 142.878 3.77756 143.655 3.75935C145.659 3.73654 147.701 3.45261 149.647 3.82151C155.85 4.98244 162.052 6.33004 168.094 8.21439C169.93 8.78057 171.826 9.48892 172.074 11.7677C172.279 13.7998 170.677 14.7096 169.262 15.6204C163.337 19.4115 158.374 24.2793 153.781 29.5224C153.233 30.1616 152.684 30.8008 152.088 31.4062C151.337 32.1488 150.534 33.0704 149.386 32.1794C148.356 31.3861 148.68 30.2864 149.096 29.2806C149.837 27.5225 150.797 25.9036 152.033 24.4057C152.751 23.5247 153.662 22.7792 153.976 21.1979C146.764 23.7836 139.817 26.382 132.627 28.2772C118.329 32.0531 103.93 35.2535 89.0375 35.3113C83.5409 35.3228 78.0416 35.1737 72.7825 33.4056C69.9892 32.4571 69.3214 34.4397 68.2971 36.1292C61.2294 47.6237 51.3143 55.1193 37.8584 57.1786C24.8694 59.1471 13.5269 54.8746 3.42899 46.8904C1.99485 45.7701 -0.56231 43.9493 0.958932 42.1468C2.41635 40.4149 4.25307 42.956 5.70272 43.9719C25.0903 57.6586 49.2163 53.26 62.2282 33.7071C63.8047 31.3523 63.7753 29.9335 61.2054 28.3777C56.7239 25.6841 53.5063 21.8437 52.0272 16.7135C50.9913 13.0902 51.2941 9.61224 53.0441 6.26903C55.0165 2.50514 58.1889 0.360563 62.4172 0.26761C66.5112 0.181403 69.3756 2.44811 71.2932 5.88201C74.1604 11.0048 74.3237 16.5536 73.4603 22.1902C72.7675 26.6778 72.9898 26.9777 77.3995 27.8191C88.791 29.9637 100.089 28.7851 111.336 26.6915C122.662 24.6095 133.717 21.4733 144.79 18.3931C149.271 17.1367 153.792 16.153 158.382 15.4199C159.693 15.2141 161.167 15.1661 162.211 13.346L162.177 13.3944ZM67.5672 20.3813C67.7222 16.6412 68.1171 12.7232 66.1706 9.12491C64.5157 6.07697 61.3296 5.97767 59.4107 8.84209C58.3496 10.4194 58.2504 12.1661 58.5948 13.9787C59.2403 17.3572 61.3913 19.7582 63.8381 21.9629C64.5213 22.5714 65.2325 23.531 66.2196 23.1704C67.3188 22.7731 67.3222 21.4926 67.571 20.3552L67.5672 20.3813Z" fill="white"/>
</svg>
